# Blender 5.1.0
# www.blender.org
o warning
v -0.519615 0.125000 -0.300000
v 0.000000 0.125000 0.600000
v 0.519615 0.125000 -0.300000
v -0.519615 -0.125000 -0.300000
v 0.000000 -0.125000 0.600000
v 0.519615 -0.125000 -0.300000
v -0.062500 -0.125000 -0.038281
v -0.062500 -0.125000 0.402424
v -0.062500 0.125000 -0.038281
v -0.062500 0.125000 0.402424
v 0.062500 -0.125000 -0.038281
v 0.062500 -0.125000 0.402424
v 0.062500 0.125000 -0.038281
v 0.062500 0.125000 0.402424
v -0.062500 -0.125000 -0.252293
v -0.062500 -0.125000 -0.127293
v -0.062500 0.125000 -0.252293
v -0.062500 0.125000 -0.127293
v 0.062500 -0.125000 -0.252293
v 0.062500 -0.125000 -0.127293
v 0.062500 0.125000 -0.252293
v 0.062500 0.125000 -0.127293
v -0.133243 0.125000 0.769217
v 0.133243 0.125000 0.769217
v 0.000000 0.125000 0.733515
v -0.599540 0.125000 -0.500000
v -0.732783 0.125000 -0.269217
v -0.635243 0.125000 -0.366757
v 0.732783 0.125000 -0.269217
v 0.599540 0.125000 -0.500000
v 0.635243 0.125000 -0.366757
v 0.133243 -0.125000 0.769217
v -0.133243 -0.125000 0.769217
v 0.000000 -0.125000 0.733515
v -0.732783 -0.125000 -0.269217
v -0.599540 -0.125000 -0.500000
v -0.635243 -0.125000 -0.366757
v 0.599540 -0.125000 -0.500000
v 0.732783 -0.125000 -0.269217
v 0.635243 -0.125000 -0.366757
vn 0.8660 -0.0000 -0.5000
vn -0.0000 -0.0000 1.0000
vn -0.8660 -0.0000 -0.5000
vn -1.0000 -0.0000 -0.0000
vn -0.0000 1.0000 -0.0000
vn 1.0000 -0.0000 -0.0000
vn -0.0000 -1.0000 -0.0000
vn -0.0000 -0.0000 -1.0000
vn -0.8660 -0.0000 0.5000
vn 0.8660 -0.0000 0.5000
vt 0.000000 0.000000
vt 0.375000 0.000000
vt 0.625000 0.000000
vt 0.625000 0.250000
vt 0.375000 0.250000
vt 0.625000 0.500000
vt 0.375000 0.500000
vt 0.625000 0.750000
vt 0.375000 0.750000
vt 0.625000 1.000000
vt 0.375000 1.000000
vt 0.125000 0.500000
vt 0.125000 0.750000
vt 0.875000 0.500000
vt 0.875000 0.750000
s 0
f 1/1/1 2/1/1 5/1/1 4/1/1
f 3/1/2 1/1/2 4/1/2 6/1/2
f 2/1/3 3/1/3 6/1/3 5/1/3
f 7/2/4 8/3/4 10/4/4 9/5/4
f 9/5/5 10/4/5 14/6/5 13/7/5
f 13/7/6 14/6/6 12/8/6 11/9/6
f 11/9/7 12/8/7 8/10/7 7/11/7
f 9/12/8 13/7/8 11/9/8 7/13/8
f 14/6/2 10/14/2 8/15/2 12/8/2
f 15/2/4 16/3/4 18/4/4 17/5/4
f 17/5/5 18/4/5 22/6/5 21/7/5
f 21/7/6 22/6/6 20/8/6 19/9/6
f 19/9/7 20/8/7 16/10/7 15/11/7
f 17/12/8 21/7/8 19/9/8 15/13/8
f 22/6/2 18/14/2 16/15/2 20/8/2
f 23/1/5 24/1/5 25/1/5
f 26/1/5 27/1/5 28/1/5
f 29/1/5 30/1/5 31/1/5
f 32/1/7 33/1/7 34/1/7
f 35/1/7 36/1/7 37/1/7
f 38/1/7 39/1/7 40/1/7
f 23/1/2 33/1/2 32/1/2 24/1/2
f 26/1/3 36/1/3 35/1/3 27/1/3
f 29/1/1 39/1/1 38/1/1 30/1/1
f 23/1/9 27/1/9 35/1/9 33/1/9
f 3/1/5 2/1/5 25/1/5 24/1/5 29/1/5 31/1/5
f 2/1/5 1/1/5 28/1/5 27/1/5 23/1/5 25/1/5
f 29/1/10 24/1/10 32/1/10 39/1/10
f 26/1/8 30/1/8 38/1/8 36/1/8
f 1/1/5 3/1/5 31/1/5 30/1/5 26/1/5 28/1/5
f 5/1/7 34/1/7 33/1/7 35/1/7 37/1/7 4/1/7
f 6/1/7 40/1/7 39/1/7 32/1/7 34/1/7 5/1/7
f 4/1/7 37/1/7 36/1/7 38/1/7 40/1/7 6/1/7
